<?xml version="1.0" standalone="no"?>
<!DOCTYPE svg PUBLIC "-//W3C//DTD SVG 20010904//EN"
 "http://www.w3.org/TR/2001/REC-SVG-20010904/DTD/svg10.dtd">
<svg version="1.0" xmlns="http://www.w3.org/2000/svg"
 width="433.000000pt" height="433.000000pt" viewBox="0 0 433.000000 433.000000"
 preserveAspectRatio="xMidYMid meet">
<metadata>
Created by potrace 1.11, written by Peter Selinger 2001-2013
</metadata>
<g transform="translate(0.000000,433.000000) scale(0.100000,-0.100000)"
fill="#000000" stroke="none">
<path d="M2719 3652 c-3 -9 -27 -16 -71 -21 -6 -1 -21 -35 -23 -56 -1 -5 -4
-17 -8 -25 -17 -41 -25 -90 -14 -90 6 0 2 -7 -9 -16 -10 -8 -13 -13 -6 -9 17
9 15 -1 -5 -32 -13 -19 -14 -25 -4 -19 11 7 12 6 5 -5 -4 -8 -9 -20 -10 -27
-2 -8 -6 -21 -10 -30 -4 -9 -9 -35 -11 -57 -1 -22 -4 -49 -7 -60 -2 -11 -5
-26 -5 -33 -1 -8 -6 -10 -13 -6 -9 5 -9 2 1 -9 10 -13 10 -17 1 -17 -7 0 -10
-8 -7 -19 2 -10 0 -26 -6 -36 -7 -14 -7 -16 3 -10 9 5 11 4 6 -3 -12 -20 -15
-51 -6 -57 5 -3 4 -19 -2 -36 -10 -29 -13 -31 -47 -25 -20 3 -37 10 -39 16 -2
5 -8 8 -13 4 -5 -3 -9 0 -9 6 0 6 -4 9 -9 5 -5 -3 -12 -1 -16 5 -3 5 -17 10
-30 10 -13 0 -26 4 -29 9 -3 4 -17 7 -31 6 -14 -2 -25 0 -25 4 0 4 -6 8 -12 9
-7 0 -29 4 -48 7 -19 3 -47 6 -62 6 -16 0 -28 5 -28 11 0 7 -5 6 -15 -2 -8 -6
-19 -9 -25 -5 -5 3 -10 2 -10 -4 0 -5 -8 -10 -17 -10 -37 -1 -53 -5 -53 -11 0
-4 -6 -7 -12 -8 -7 0 -23 -4 -35 -7 -16 -5 -25 -1 -37 18 -16 23 -26 56 -28
84 -1 7 -4 10 -8 8 -3 -2 -12 12 -19 31 -7 18 -17 34 -22 34 -6 0 -8 4 -4 9 3
5 -2 17 -11 25 -8 9 -12 16 -7 16 4 0 3 4 -4 8 -6 4 -13 14 -15 22 -2 8 -9 21
-16 28 -7 8 -10 18 -7 23 4 5 2 9 -3 9 -10 0 -48 80 -44 93 1 5 -1 6 -6 3 -5
-3 -15 10 -22 29 -8 19 -17 35 -22 35 -4 0 -8 7 -8 16 0 9 -8 23 -17 31 -11 9
-12 11 -3 7 10 -5 8 1 -5 17 -11 13 -21 26 -23 29 -7 11 -88 5 -101 -8 -7 -7
-19 -11 -27 -8 -7 3 -14 1 -16 -4 -2 -5 -9 -10 -17 -12 -8 -2 -31 -20 -52 -40
-20 -20 -40 -34 -43 -31 -3 3 -10 -6 -15 -21 -6 -14 -15 -26 -21 -26 -5 0 -9
-6 -7 -12 1 -7 -4 -12 -11 -10 -8 1 -11 -2 -8 -7 4 -5 1 -15 -6 -23 -7 -7 -14
-19 -15 -25 -12 -62 -12 -73 -1 -73 9 0 8 -3 -2 -10 -10 -6 -11 -10 -3 -10 7
0 12 -3 12 -7 -4 -22 3 -41 21 -61 11 -12 20 -28 20 -37 0 -9 5 -13 10 -10 5
3 10 0 10 -8 0 -8 21 -28 48 -45 48 -31 101 -39 134 -21 13 7 18 6 18 -3 0 -9
3 -9 10 2 9 13 10 13 10 0 0 -12 2 -12 9 -2 5 8 20 15 34 15 14 1 25 7 24 12
-1 6 4 9 11 7 8 -1 11 2 7 8 -3 5 -2 10 2 10 5 0 14 9 21 21 11 17 11 20 0 14
-8 -4 -7 -1 2 7 14 13 18 63 6 94 -3 8 0 14 7 14 7 0 4 5 -5 11 -10 5 -18 21
-18 34 0 14 -5 25 -11 25 -5 0 -7 5 -3 12 4 7 3 8 -4 4 -6 -4 -20 2 -32 14
-11 11 -20 17 -20 14 0 -4 -11 1 -25 10 -17 12 -25 13 -25 4 0 -9 -3 -9 -12 0
-8 8 -16 8 -32 0 -27 -15 -46 -34 -46 -47 0 -6 -6 -11 -13 -11 -9 0 -14 -16
-16 -46 -1 -30 2 -44 8 -39 6 3 11 1 11 -4 0 -6 7 -11 16 -11 8 0 13 -3 10 -8
-8 -14 40 -30 55 -18 21 16 21 36 2 43 -10 4 -23 14 -30 22 -15 19 -17 45 -3
36 6 -3 10 -1 10 5 0 17 28 42 32 29 2 -5 13 -11 25 -12 12 0 20 -3 18 -6 -3
-2 5 -12 16 -22 12 -10 18 -23 14 -28 -3 -6 -1 -11 6 -11 6 0 9 -8 6 -20 -3
-10 0 -21 7 -24 7 -3 7 -5 -2 -5 -10 -1 -10 -6 -2 -21 6 -11 7 -20 3 -20 -5 0
-13 -10 -18 -22 -6 -13 -18 -22 -27 -22 -10 1 -15 -3 -11 -9 4 -6 0 -8 -10 -4
-10 3 -17 3 -17 -2 0 -12 -114 -5 -118 8 -2 6 -10 11 -17 11 -8 0 -17 9 -20
20 -3 11 -11 20 -16 20 -6 0 -8 4 -4 9 3 5 -4 16 -16 25 -13 9 -19 21 -16 30
4 9 3 16 -2 16 -5 0 -9 18 -9 40 -1 22 3 38 8 35 4 -3 7 2 6 12 -3 18 24 52
36 46 4 -2 5 3 2 11 -3 9 -1 16 5 16 15 0 51 37 44 44 -4 3 1 6 11 6 9 0 19 6
22 14 3 8 19 18 35 21 16 4 27 10 25 13 -2 4 7 8 20 8 13 1 22 -1 19 -6 -2 -4
7 -5 20 -2 14 2 25 0 25 -5 0 -6 11 -26 24 -46 13 -19 22 -38 18 -41 -3 -3 0
-6 7 -6 7 0 10 -4 6 -9 -3 -5 -1 -12 5 -16 5 -3 10 -15 10 -26 0 -11 7 -22 15
-25 8 -4 12 -10 9 -15 -3 -5 0 -9 6 -9 6 0 8 -4 5 -10 -3 -5 -1 -10 5 -10 6 0
15 -10 20 -22 6 -13 19 -36 29 -53 10 -16 16 -33 14 -37 -2 -5 1 -8 7 -8 6 0
9 -4 5 -9 -3 -5 -1 -12 5 -16 5 -3 10 -15 10 -26 0 -11 5 -17 10 -14 6 3 10
-3 10 -14 0 -12 5 -21 11 -21 5 0 7 -4 4 -10 -3 -5 -2 -10 4 -10 5 0 8 -9 6
-20 -2 -11 1 -20 6 -20 6 0 8 -4 4 -9 -3 -5 -1 -13 5 -16 8 -5 8 -11 1 -19 -6
-7 -7 -16 -3 -20 4 -4 3 -6 -3 -5 -5 2 -20 -2 -31 -9 -12 -6 -24 -9 -26 -6 -5
4 -53 -36 -123 -103 -13 -12 -26 -19 -29 -15 -4 3 -9 -4 -13 -16 -3 -12 -10
-22 -15 -22 -13 0 -58 -51 -58 -66 0 -8 -4 -14 -10 -14 -5 0 -10 -6 -10 -13 0
-7 -9 -18 -20 -25 -11 -7 -20 -19 -20 -27 0 -8 -4 -15 -10 -15 -5 0 -7 -7 -4
-15 4 -8 1 -15 -7 -15 -7 0 -9 -3 -6 -6 3 -4 1 -16 -5 -28 -7 -11 -12 -24 -13
-28 0 -3 -3 -10 -7 -14 -5 -4 -8 -17 -8 -29 0 -11 -5 -26 -12 -33 -9 -9 -9
-12 -1 -12 7 0 10 -9 7 -22 -3 -13 -6 -27 -7 -33 -2 -5 -7 -16 -11 -24 -6 -9
-5 -12 2 -7 9 6 10 -6 3 -66 -1 -11 -41 -10 -41 0 0 11 -70 38 -87 34 -7 -2
-13 1 -13 6 0 9 -14 11 -105 14 -33 2 -63 8 -67 13 -5 7 -8 7 -8 0 0 -6 -32
-11 -72 -12 -81 -3 -98 -5 -114 -16 -6 -3 -14 -3 -18 0 -8 9 -46 11 -46 3 0
-3 -12 -5 -27 -5 -16 1 -40 -5 -55 -12 -15 -7 -36 -13 -48 -13 -11 0 -20 -5
-20 -10 0 -6 -6 -10 -12 -9 -21 4 -68 -12 -68 -23 0 -5 -5 -6 -10 -3 -6 3 -13
-1 -16 -10 -5 -13 -9 -13 -23 -3 -9 7 -13 9 -9 4 7 -8 -14 -36 -27 -36 -19 0
-113 -93 -108 -107 3 -7 0 -13 -5 -13 -9 0 -25 -37 -23 -52 1 -5 -4 -8 -10 -8
-5 0 -7 -5 -3 -11 3 -6 0 -15 -7 -20 -11 -7 -11 -9 -1 -9 11 0 11 -3 -1 -14
-11 -11 -13 -40 -10 -128 5 -153 6 -168 15 -168 4 0 5 -7 1 -16 -3 -9 0 -19 6
-24 7 -4 14 -13 15 -21 2 -8 6 -22 11 -31 4 -10 4 -25 1 -34 -3 -8 -2 -12 3
-9 11 6 21 -7 26 -36 2 -11 24 -40 49 -64 25 -23 42 -45 39 -49 -3 -3 5 -14
18 -25 13 -10 35 -28 48 -40 13 -11 32 -23 42 -26 11 -4 16 -11 13 -17 -4 -6
-2 -8 4 -4 6 3 13 2 17 -4 4 -6 10 -8 15 -5 5 3 15 -2 24 -10 8 -9 17 -14 18
-13 5 5 123 -36 129 -45 3 -4 10 -7 15 -6 23 4 55 -2 50 -9 -3 -5 9 -9 27 -9
56 0 107 -7 107 -14 0 -3 22 -5 50 -3 34 2 50 -1 50 -9 0 -8 3 -8 8 -2 9 13
52 15 52 2 0 -6 4 -6 13 0 11 9 129 8 154 -1 13 -5 12 -17 -6 -60 -6 -16 -10
-35 -7 -42 3 -8 1 -16 -4 -19 -11 -7 9 -55 22 -55 5 0 7 -4 4 -9 -3 -5 6 -17
19 -27 14 -10 25 -25 25 -32 0 -7 4 -11 9 -8 5 3 14 -1 21 -9 7 -8 19 -15 26
-15 8 0 14 -4 14 -10 0 -5 7 -7 15 -4 8 4 15 1 15 -5 0 -6 3 -10 8 -10 4 1 9
0 12 -1 15 -6 60 -4 60 2 0 4 9 8 20 8 11 0 20 4 20 8 0 12 52 36 70 33 8 -2
12 0 8 4 -4 4 0 15 9 23 19 20 73 25 73 8 0 -11 36 -35 63 -42 4 -1 10 -3 15
-4 4 -1 10 -2 15 -1 4 0 7 -3 7 -9 0 -6 3 -9 8 -8 28 7 144 -33 164 -57 35
-40 38 -45 38 -50 -1 -17 14 -55 22 -55 5 0 7 -4 4 -8 -3 -5 4 -16 15 -25 24
-21 29 -21 29 -2 0 8 3 15 8 15 4 0 8 17 8 37 3 89 4 94 17 87 9 -6 9 -5 0 7
-16 20 3 43 47 53 3 1 15 7 26 14 12 6 24 8 28 5 3 -3 6 -2 6 4 0 5 18 18 40
28 22 10 40 22 40 28 0 5 9 7 20 4 10 -3 18 -2 17 2 -1 3 1 6 4 6 3 0 18 13
32 29 22 23 37 30 72 31 27 1 45 -2 45 -9 0 -6 4 -5 9 2 7 11 11 11 22 -1 8
-7 19 -12 25 -10 7 2 18 -2 25 -9 8 -7 26 -13 42 -13 15 1 27 -3 27 -9 0 -5 3
-6 7 -3 3 4 11 3 17 -2 6 -5 39 -12 74 -14 81 -7 148 23 178 78 10 19 22 35
27 35 4 0 6 4 2 9 -3 5 -1 12 5 16 6 4 7 12 3 18 -13 21 -13 68 0 61 9 -5 9
-3 0 6 -8 9 -9 19 -2 32 7 13 6 18 -2 18 -7 0 -9 10 -7 25 3 14 2 25 -2 25
-15 0 -30 59 -17 67 6 4 59 8 117 9 58 1 116 5 130 8 61 15 80 16 80 4 0 -9 3
-8 10 2 5 8 12 12 15 8 3 -3 30 1 58 9 29 7 61 16 72 18 49 9 68 15 81 26 8 6
14 8 14 5 0 -4 7 0 16 8 8 9 19 14 24 11 4 -3 10 2 14 10 3 8 14 15 25 15 11
0 27 7 35 16 9 8 21 12 27 8 7 -4 9 -3 5 4 -3 6 3 13 14 17 26 8 82 64 106
104 10 17 21 31 25 31 4 0 5 9 2 20 -3 12 0 20 8 20 7 0 9 3 6 7 -4 3 -3 11 2
17 14 17 21 75 10 82 -6 3 -6 11 -1 17 5 7 8 36 7 64 -1 46 0 51 14 40 12 -8
11 -6 -1 9 -10 11 -18 28 -18 37 0 9 -5 19 -10 22 -6 4 -8 10 -5 15 3 5 -1 15
-8 22 -8 8 -20 30 -28 51 -7 20 -19 37 -26 37 -7 0 -13 3 -12 8 3 17 -14 51
-22 46 -5 -3 -9 0 -9 6 0 16 -20 34 -58 54 -20 10 -30 21 -26 29 4 7 4 9 0 5
-4 -3 -31 5 -59 20 -29 14 -65 27 -81 29 -17 2 -32 7 -35 12 -4 4 -13 8 -21 8
-25 1 -67 11 -87 20 -10 5 -30 8 -45 7 -17 -2 -28 2 -28 9 0 8 -3 8 -8 2 -10
-14 -52 -15 -52 -1 0 6 -4 5 -9 -3 -5 -8 -11 -9 -15 -3 -3 6 -15 8 -27 5 -12
-4 -25 0 -30 8 -5 8 -9 9 -9 3 0 -7 -15 -9 -45 -4 -25 4 -45 3 -45 -1 0 -4
-11 -6 -25 -4 -14 1 -25 -1 -25 -4 0 -4 -16 -6 -35 -6 -19 1 -35 -3 -35 -8 0
-5 -8 -3 -17 4 -11 10 -14 10 -9 2 4 -8 1 -13 -8 -14 -18 -2 -35 -5 -38 -9 -2
-1 -15 -4 -29 -6 -18 -3 -29 1 -33 11 -3 8 -2 15 2 15 10 0 2 225 -8 250 -1 3
-2 8 -1 13 0 4 -4 7 -9 7 -6 0 -10 6 -10 13 0 8 -9 24 -20 37 -11 13 -20 27
-20 31 0 13 -42 49 -52 43 -4 -3 -8 2 -8 10 0 9 -7 16 -16 16 -8 0 -12 5 -9
10 3 6 -1 13 -9 16 -9 3 -13 10 -10 15 3 5 1 9 -4 9 -5 0 -22 11 -38 25 -16
14 -33 25 -37 25 -4 0 -17 9 -29 20 -12 10 -25 17 -30 14 -9 -6 -10 -1 -12
116 -2 88 1 113 13 106 4 -3 6 15 5 40 -1 27 2 41 8 38 6 -4 6 1 -1 13 -6 11
-7 23 -4 27 4 4 8 16 10 28 2 12 8 28 15 35 6 7 8 16 4 20 -3 3 0 16 7 27 7
12 13 32 12 46 0 14 4 28 10 32 6 5 4 8 -5 8 -12 0 -13 2 -1 9 12 8 19 32 23
79 1 6 6 12 11 12 6 0 7 3 4 6 -8 9 12 46 21 40 5 -3 14 -1 22 4 9 5 19 5 27
-2 9 -7 13 -7 13 1 0 7 8 8 26 1 14 -6 30 -8 35 -4 5 3 9 1 9 -5 0 -6 7 -8 15
-5 8 4 15 1 15 -5 0 -6 7 -11 15 -11 8 0 15 -4 15 -10 0 -5 7 -7 15 -4 8 4 15
1 15 -5 0 -6 7 -11 15 -11 8 0 15 -4 15 -10 0 -5 7 -10 15 -10 8 0 15 -7 15
-15 0 -7 6 -18 13 -22 6 -4 19 -17 27 -27 13 -18 13 -19 0 -11 -12 7 -13 6 -3
-7 7 -8 10 -18 6 -21 -3 -4 -6 -20 -5 -37 0 -17 -5 -30 -11 -30 -8 0 -7 -3 2
-9 9 -6 10 -11 3 -15 -6 -4 -9 -12 -6 -19 8 -21 -39 -82 -64 -83 -12 -1 -22 3
-22 9 0 5 -5 5 -13 -2 -17 -14 -54 -7 -81 16 -28 24 -36 35 -30 45 3 4 0 8 -7
8 -10 0 -10 3 -1 12 8 8 9 15 1 25 -7 8 -8 13 -1 13 5 0 13 11 16 25 4 14 13
25 22 25 19 0 42 -22 37 -36 -2 -6 7 -16 21 -22 21 -9 25 -8 30 11 3 12 0 25
-7 29 -7 4 -8 8 -4 8 5 0 0 13 -9 29 -10 17 -21 28 -26 25 -4 -3 -8 -1 -8 5 0
18 -35 17 -63 -2 -24 -16 -57 -63 -58 -84 0 -5 -7 -12 -15 -16 -12 -7 -13 -12
-3 -23 6 -8 9 -14 5 -14 -4 0 0 -13 8 -29 9 -16 12 -31 9 -35 -4 -3 1 -6 11
-6 9 0 14 -4 11 -10 -3 -5 2 -10 11 -10 10 0 26 -7 35 -16 10 -9 30 -16 44
-16 14 0 25 -5 25 -10 0 -5 6 -6 12 -2 18 11 48 12 48 2 0 -16 77 33 88 56 12
24 26 77 24 89 -1 4 2 7 7 7 4 0 7 13 5 30 -2 17 3 35 12 45 8 8 11 15 5 15
-5 0 -8 9 -6 20 2 11 0 20 -6 20 -5 0 -9 6 -9 13 0 7 -9 19 -20 27 -11 8 -20
18 -20 23 0 13 -47 56 -54 50 -3 -4 -6 -1 -6 5 0 6 -16 14 -35 18 -19 3 -33 9
-31 13 3 4 -5 8 -16 8 -12 1 -24 6 -27 10 -3 5 -22 10 -41 11 -19 2 -36 7 -38
12 -2 6 -12 6 -24 -1 -15 -8 -22 -8 -28 1 -5 8 -9 9 -11 2z"/>
</g>
</svg>
